<?xml version="1.0" standalone="no"?>
<!DOCTYPE svg PUBLIC "-//W3C//DTD SVG 20010904//EN"
 "http://www.w3.org/TR/2001/REC-SVG-20010904/DTD/svg10.dtd">
<svg version="1.0" xmlns="http://www.w3.org/2000/svg"
 width="1280.000000pt" height="640.000000pt" viewBox="0 0 1280.000000 640.000000"
 preserveAspectRatio="xMidYMid meet">
<g transform="translate(0.000000,640.000000) scale(0.100000,-0.100000)"
fill="#000000" stroke="none">
<path d="M6490 6370 c-317 -19 -475 -55 -935 -210 -165 -55 -437 -139 -605
-186 -1292 -359 -1947 -614 -2557 -996 -79 -49 -147 -87 -153 -83 -5 3 -10 18
-10 32 0 14 -7 53 -16 87 -58 224 -238 355 -560 406 -70 11 -434 40 -506 40
l-48 0 0 -38 c0 -34 3 -39 35 -51 37 -13 55 -9 55 14 0 31 23 25 60 -15 l39
-42 125 7 c142 8 189 -2 184 -38 -6 -39 -60 -59 -185 -68 -76 -6 -124 -14
-140 -24 -31 -21 -21 -35 25 -35 56 0 115 -19 134 -43 l16 -21 42 38 c31 28
45 35 53 27 12 -12 9 -24 -66 -202 -197 -468 -259 -907 -176 -1245 15 -62 17
-87 9 -108 -17 -45 -12 -101 11 -130 40 -51 43 -38 33 176 -13 290 -9 421 13
487 30 91 40 76 48 -76 11 -226 57 -539 131 -903 21 -99 62 -227 76 -236 24
-15 -14 223 -96 596 -92 419 -116 622 -97 815 11 117 34 231 60 298 15 38 47
48 196 56 72 5 137 11 146 15 10 4 20 3 23 -2 3 -6 -1 -68 -9 -139 -57 -498
-61 -1185 -9 -1683 63 -603 193 -1113 388 -1523 30 -61 52 -96 65 -100 10 -2
42 0 71 5 56 10 80 0 80 -33 0 -24 -43 -35 -76 -20 -33 15 -54 14 -54 -2 0 -7
49 -100 110 -206 103 -183 130 -244 116 -259 -10 -9 -27 13 -103 128 -242 366
-425 802 -589 1405 -39 144 -54 215 -52 253 2 38 -2 57 -15 69 -16 16 -17 16
-17 1 0 -10 20 -116 45 -237 140 -679 354 -1224 643 -1635 43 -62 52 -80 41
-87 -15 -9 -100 -3 -201 15 l-63 11 0 50 c0 44 -8 63 -62 150 -33 55 -86 150
-116 210 -53 107 -97 167 -97 133 0 -8 25 -65 55 -127 30 -62 55 -123 55 -137
0 -64 -68 4 -134 134 -25 48 -51 96 -60 107 -15 19 -15 18 -16 -16 0 -83 91
-216 252 -368 43 -41 78 -81 78 -91 0 -22 -26 -45 -74 -65 -50 -21 -66 -14
-66 30 0 44 -25 48 -34 5 -7 -38 -30 -48 -65 -28 -14 9 -49 21 -78 28 -60 14
-72 25 -80 73 -4 27 -1 39 16 54 l21 20 -20 46 c-11 25 -25 83 -31 129 -12 99
-25 143 -51 180 -15 21 -21 57 -29 155 -22 290 -77 656 -174 1153 -88 449
-115 611 -115 681 0 39 -5 89 -11 112 -11 44 -35 84 -44 75 -8 -8 28 -246 111
-738 138 -818 170 -1024 203 -1335 34 -312 46 -545 42 -815 -1 -75 -25 -31
-75 140 -146 498 -245 1006 -431 2215 -68 439 -92 572 -111 614 -13 29 -24 60
-24 68 0 8 -4 12 -9 9 -17 -11 -69 44 -129 137 -33 50 -72 103 -86 116 -24 23
-26 23 -26 5 0 -27 48 -125 107 -219 68 -109 91 -155 103 -211 12 -54 2 -76
-26 -53 -10 8 -47 55 -84 104 -68 92 -96 122 -106 112 -10 -10 43 -101 120
-205 88 -121 119 -181 142 -275 14 -54 15 -70 5 -80 -10 -9 -26 2 -74 54 -137
146 -234 304 -455 734 -163 318 -270 511 -278 502 -10 -9 42 -130 156 -367 65
-135 135 -285 154 -333 42 -103 41 -103 198 -294 203 -247 299 -413 326 -561
18 -98 -11 -78 -153 103 -200 257 -391 583 -510 877 l-40 96 -40 5 c-22 2 -41
3 -42 2 -1 0 6 -50 16 -111 37 -210 43 -322 51 -929 5 -335 13 -668 19 -738
14 -165 3 -265 -40 -356 -57 -121 -49 -289 22 -470 36 -90 67 -148 205 -382
98 -166 164 -300 164 -332 0 -18 118 -110 130 -102 15 9 12 44 -6 96 -29 81 1
126 52 78 l22 -20 13 87 13 87 -50 41 c-216 179 -349 353 -403 529 -39 129
-50 327 -17 327 6 0 30 -40 54 -89 48 -98 174 -271 248 -341 l47 -45 -22 40
c-26 45 -75 113 -191 265 -88 115 -145 222 -156 288 -5 33 -4 42 8 42 23 0
105 -92 207 -235 138 -191 189 -253 244 -297 27 -21 52 -37 54 -34 8 8 -51 87
-178 236 -68 80 -142 168 -165 195 -113 139 -216 335 -175 335 34 0 167 -135
301 -305 125 -159 245 -286 217 -230 -23 45 -99 146 -213 282 -125 148 -230
287 -278 367 -43 72 -49 133 -15 167 11 11 26 18 32 16 7 -2 58 -70 114 -151
206 -297 379 -503 629 -751 164 -164 172 -173 193 -237 24 -73 25 -121 1 -126
-25 -4 -93 61 -184 176 -46 59 -98 117 -114 129 -105 77 -26 -53 158 -260 136
-153 196 -260 176 -313 -12 -32 -46 2 -218 221 -35 43 -78 90 -97 102 -32 22
-92 32 -91 16 1 -5 26 -28 56 -53 89 -72 210 -204 263 -285 53 -81 87 -166 77
-192 -9 -22 -33 2 -222 219 -84 97 -158 180 -164 183 -22 13 -21 -3 1 -47 57
-114 140 -205 362 -396 106 -92 217 -214 217 -239 0 -49 -143 49 -350 242 -93
86 -192 168 -227 189 -41 24 13 -34 224 -242 l238 -234 95 6 c98 5 199 22 213
36 5 4 -12 31 -37 59 -41 46 -76 100 -76 116 0 16 34 -5 104 -63 91 -74 116
-111 116 -169 0 -49 12 -54 46 -18 27 29 64 32 100 9 22 -15 26 -15 42 -1 9 8
49 30 87 50 125 62 183 71 150 24 -26 -37 -95 -76 -157 -88 -72 -14 -60 -29
25 -29 76 0 116 18 186 84 59 57 75 79 205 279 42 64 83 117 90 117 7 0 66
-23 131 -50 221 -95 450 -163 625 -185 30 -4 93 -22 140 -40 284 -108 656
-181 1095 -214 221 -17 289 -21 640 -36 187 -8 453 -22 590 -31 776 -50 1458
54 2058 313 l127 56 54 76 c29 42 98 133 153 202 112 142 176 237 221 324 41
83 85 229 79 262 -3 16 -25 87 -50 158 -67 193 -66 182 -10 206 92 39 124 84
173 250 31 105 75 197 101 210 8 5 31 11 52 14 28 4 55 21 96 59 32 29 65 57
73 62 13 7 20 50 33 194 29 314 15 443 -59 531 -14 16 -23 35 -20 42 3 6 42
41 86 77 254 203 361 346 410 544 14 57 27 87 37 90 9 3 54 12 101 21 105 21
246 55 415 102 150 42 179 62 247 175 144 241 139 518 -12 666 -68 67 -149
103 -335 151 -167 43 -290 92 -283 113 7 20 45 26 173 27 78 1 131 7 150 16
26 12 2 13 -205 13 -246 0 -366 14 -399 47 -14 13 -11 15 21 15 26 0 48 10 87
41 51 41 90 47 77 13 -19 -51 -18 -64 4 -64 15 0 46 23 87 65 60 61 93 80 93
53 0 -6 -12 -26 -26 -45 -14 -18 -26 -46 -27 -61 -2 -25 1 -27 31 -25 24 1 46
13 82 47 27 25 54 46 59 46 22 0 22 -24 1 -52 -49 -66 35 -54 117 17 28 25 54
45 57 45 13 0 5 -29 -15 -54 -11 -14 -17 -30 -14 -36 10 -17 66 -11 100 10 38
24 65 17 65 -15 0 -16 -9 -26 -30 -35 -45 -19 -38 -34 13 -26 23 3 137 9 252
13 260 7 428 -4 905 -62 435 -53 538 -63 775 -71 l180 -7 55 28 c183 91 339
235 384 353 14 37 26 76 26 86 0 32 -57 140 -91 171 l-32 30 6 -25 c3 -14 14
-51 26 -82 33 -90 24 -158 -20 -158 -36 0 -79 -33 -116 -90 -49 -75 -73 -100
-96 -100 -16 0 -18 5 -12 30 9 43 -12 39 -60 -10 -45 -46 -75 -52 -75 -16 0
31 -16 36 -57 19 -22 -9 -78 -13 -170 -13 -104 0 -145 -4 -167 -15 -43 -22
-58 -14 -45 25 8 23 8 34 -1 45 -17 20 -32 19 -63 -5 -14 -11 -34 -20 -45 -20
-20 0 -36 25 -26 41 7 12 -5 49 -16 49 -5 0 -35 -22 -66 -50 -70 -61 -132 -71
-89 -14 20 26 19 73 -2 81 -11 4 -24 -3 -39 -23 -46 -58 -64 -74 -84 -74 -27
0 -27 38 0 82 21 35 27 88 10 88 -22 0 -66 -29 -105 -69 -21 -23 -47 -41 -57
-41 -23 0 -23 1 7 60 47 93 27 123 -35 53 -23 -27 -48 -52 -56 -56 -26 -15
-42 10 -37 56 3 31 -3 64 -26 125 -35 93 -38 136 -16 189 13 31 13 37 1 47 -9
6 -20 23 -25 39 -6 15 -15 27 -21 27 -21 0 -49 -86 -64 -201 -9 -64 -23 -136
-31 -161 -18 -51 -70 -118 -92 -118 -18 0 -15 44 7 122 8 26 11 50 7 54 -18
19 -57 -19 -95 -94 -42 -80 -59 -96 -87 -86 -21 8 -19 22 15 102 31 73 37 102
21 102 -17 0 -41 -31 -71 -89 -32 -65 -53 -86 -75 -77 -18 6 -13 36 16 101 10
21 15 43 13 47 -10 16 -46 -14 -72 -60 -64 -110 -134 -146 -97 -49 20 54 17
100 -8 105 -27 5 -47 -17 -79 -85 -23 -52 -32 -63 -52 -63 -33 0 -41 29 -21
75 22 55 20 75 -9 75 -23 0 -76 -49 -76 -70 0 -17 -52 -70 -70 -70 -29 0 -30
22 -4 85 26 63 20 81 -21 69 -29 -9 -45 -27 -79 -91 -32 -59 -66 -83 -100 -70
-15 6 -15 9 0 44 22 51 37 104 30 110 -12 12 -45 -10 -57 -39 -7 -17 -23 -44
-37 -59 -45 -55 -77 -26 -47 42 13 27 15 43 8 50 -14 14 -58 -8 -78 -38 -10
-14 -25 -23 -41 -23 -23 0 -25 3 -19 23 4 12 10 41 12 65 6 53 -8 55 -58 6
-43 -42 -60 -38 -52 11 5 30 3 35 -13 35 -11 0 -36 -12 -57 -26 -44 -30 -73
-26 -62 9 4 12 9 39 12 59 4 30 1 39 -13 45 -24 9 -52 -29 -61 -80 -10 -62
-73 -114 -89 -73 -3 8 2 52 12 98 24 117 24 252 0 306 -10 23 -25 42 -32 42
-14 0 -53 -62 -129 -205 -91 -170 -162 -262 -244 -314 -78 -50 -91 -40 -33 27
27 31 70 89 94 127 47 73 168 307 168 325 0 18 -55 -17 -90 -56 -18 -21 -56
-87 -85 -148 -56 -120 -90 -168 -137 -192 -49 -26 -53 -4 -12 72 21 38 46 85
55 104 76 151 -22 96 -106 -60 -56 -102 -99 -160 -121 -160 -28 0 -11 59 47
160 37 64 58 120 44 120 -21 0 -48 -27 -70 -70 -14 -27 -37 -56 -53 -64 -15
-8 -24 -15 -19 -16 10 0 -21 -60 -46 -87 -19 -22 -67 -32 -67 -15 0 4 9 22 20
40 11 18 20 41 20 51 0 24 25 45 45 38 11 -5 13 0 8 26 -16 88 -41 86 -105 -8
-66 -96 -128 -151 -128 -112 0 6 14 39 30 71 33 65 38 96 14 96 -29 0 -59 -21
-111 -78 -37 -41 -55 -54 -63 -46 -7 7 -3 24 15 58 14 26 25 58 25 72 0 59
-69 5 -128 -101 -27 -47 -48 -73 -66 -79 -45 -17 -51 5 -17 60 58 90 29 168
-33 89 -55 -68 -103 -115 -120 -115 -23 0 -20 15 18 78 45 76 53 102 29 102
-10 0 -56 14 -103 30 l-85 30 3 33 c2 23 -3 38 -17 51 -19 17 -22 18 -46 2
-28 -19 -45 -49 -70 -126 -30 -94 -47 -102 -76 -35 -24 54 -44 75 -71 75 -20
0 -21 -4 -15 -64 5 -55 3 -68 -14 -90 -11 -14 -29 -26 -40 -26 -30 0 -95 65
-170 171 -62 88 -139 169 -161 169 -18 0 -6 -37 32 -101 23 -37 44 -83 47
-103 5 -31 3 -36 -15 -36 -18 0 -39 13 -156 93 -21 15 -43 27 -47 27 -16 0 -9
-34 16 -88 41 -87 28 -120 -34 -88 -58 30 -70 21 -46 -36 13 -32 -22 -31 -122
1 -194 62 -481 101 -740 101 -135 0 -195 -4 -380 -25 -54 -7 -63 -5 -63 8 0
18 44 54 105 86 53 27 80 49 72 58 -15 14 -129 -33 -347 -143 -297 -149 -330
-162 -330 -130 0 22 67 75 182 143 94 56 143 93 123 93 -15 0 -205 -102 -272
-147 -247 -165 -511 -440 -674 -703 -28 -45 -48 -84 -46 -86 2 -3 46 44 98
103 203 235 356 376 466 432 106 53 87 23 -129 -197 -125 -128 -203 -215 -221
-249 -16 -29 -26 -53 -23 -53 2 0 67 68 143 151 76 84 179 187 228 231 107 94
248 192 267 186 8 -3 -51 -68 -153 -169 -152 -151 -303 -320 -329 -369 -27
-50 21 -12 139 112 271 283 366 373 431 411 64 37 90 45 90 28 0 -4 -78 -87
-173 -182 -110 -111 -194 -205 -230 -258 -31 -47 -54 -87 -52 -90 3 -2 114
104 248 236 237 235 322 306 421 347 47 19 46 19 46 2 0 -7 -21 -31 -47 -52
-127 -102 -345 -332 -423 -444 l-25 -35 37 28 c19 15 89 87 154 159 136 150
234 238 323 288 34 19 72 42 84 52 l22 16 -24 25 c-13 15 -20 31 -16 37 16 26
125 -12 125 -43 0 -8 -39 -40 -87 -72 -100 -68 -252 -214 -306 -295 -20 -30
-37 -58 -37 -63 0 -15 57 32 187 154 129 123 210 190 271 225 19 10 40 33 47
51 20 47 59 69 98 55 18 -6 43 -8 57 -6 14 3 70 -6 125 -20 288 -72 608 -122
1515 -236 602 -76 896 -123 1178 -190 104 -25 142 -40 258 -102 74 -40 169
-98 211 -129 l75 -56 96 -7 c131 -10 252 -31 344 -62 80 -26 162 -74 172 -100
7 -18 3 -18 -152 10 -149 27 -148 14 2 -24 76 -19 136 -39 134 -45 -7 -22
-133 -8 -253 28 -66 19 -135 38 -152 42 -30 6 -47 25 -23 25 6 0 10 4 10 8 0
5 -30 14 -67 21 -38 6 -92 19 -121 28 -51 16 -55 16 -90 -3 -62 -33 -152 -124
-183 -185 -16 -32 -34 -90 -41 -130 -11 -67 -10 -74 7 -83 45 -26 84 -70 114
-125 36 -69 57 -86 173 -141 172 -82 387 -119 532 -91 176 33 293 149 326 322
6 29 12 55 15 57 29 29 26 -143 -4 -221 -63 -163 -266 -279 -459 -264 -56 4
-73 1 -128 -24 -184 -83 -416 -84 -724 -3 -117 30 -489 143 -510 153 -8 5 -16
19 -18 33 -2 14 -14 36 -28 49 -13 12 -24 27 -24 33 0 6 35 28 78 48 113 53
223 158 167 158 -23 0 -71 -26 -144 -78 -73 -51 -139 -78 -154 -63 -18 18 1
38 92 101 83 57 121 94 121 120 0 20 -27 9 -90 -35 -62 -44 -111 -57 -125 -34
-11 18 27 50 95 81 89 40 139 88 91 88 -10 0 -38 -15 -62 -33 -78 -60 -121
-73 -133 -41 -9 25 -7 102 3 109 6 3 10 28 9 55 0 97 -41 46 -68 -85 -15 -71
-35 -115 -54 -115 -21 0 -26 23 -27 128 -2 146 -12 245 -26 249 -24 8 -44 -58
-53 -171 -11 -134 -16 -150 -41 -142 -11 3 -28 9 -38 12 -16 5 -21 -2 -30 -45
-6 -28 -23 -69 -37 -91 -43 -65 -154 -127 -154 -86 0 7 23 49 51 92 28 43 53
84 56 91 22 57 -120 -85 -164 -164 -18 -32 -33 -66 -33 -75 0 -15 3 -15 40 -1
29 12 48 14 72 7 52 -15 44 -44 -21 -75 -100 -49 -177 -59 -454 -59 -269 0
-314 -6 -469 -55 -118 -39 -208 -43 -292 -15 -64 21 -116 21 -116 0 0 -5 21
-12 48 -15 64 -9 79 -14 97 -31 29 -30 18 -37 -49 -30 -83 8 -311 67 -625 161
-140 41 -257 73 -260 69 -17 -17 94 -78 216 -118 127 -42 190 -95 105 -88 -47
4 -198 46 -274 77 -62 25 -69 22 -38 -17 29 -37 102 -64 225 -83 119 -18 213
-41 233 -57 19 -16 15 -32 -29 -98 -47 -70 -113 -120 -131 -102 -9 9 -3 21 24
50 34 34 68 96 68 122 0 18 -32 10 -63 -16 -22 -18 -39 -25 -59 -22 -26 4 -31
0 -49 -43 -24 -55 -52 -84 -74 -76 -23 10 -18 41 15 82 34 43 38 65 12 65 -27
0 -49 -28 -77 -100 -32 -83 -51 -110 -75 -110 -27 0 -26 23 5 104 28 75 29 80
15 71 -27 -17 -250 -519 -236 -532 15 -15 67 55 100 136 37 90 69 135 89 128
26 -9 -24 -166 -86 -276 -43 -75 -152 -201 -175 -201 -26 0 -12 40 39 111 7 9
9 24 6 33 -11 29 -44 1 -77 -64 -30 -59 -64 -90 -81 -73 -5 5 3 29 21 56 16
26 30 60 30 74 l0 27 -41 -39 c-45 -44 -104 -135 -198 -300 -86 -152 -150
-237 -213 -279 -52 -36 -88 -46 -88 -25 0 6 53 77 119 158 125 157 191 257
217 334 35 102 7 78 -90 -78 -119 -192 -187 -286 -259 -357 -86 -86 -154 -109
-85 -29 18 21 53 75 77 118 66 118 103 173 158 233 27 30 59 69 70 86 26 36
40 84 25 84 -6 0 -68 -80 -138 -177 -156 -219 -249 -331 -323 -389 -31 -24
-59 -44 -63 -44 -24 0 6 44 133 196 138 166 212 272 244 347 8 20 11 37 6 37
-15 0 -84 -81 -161 -189 -41 -58 -97 -128 -125 -157 -86 -87 -159 -109 -94
-28 52 65 133 193 196 309 81 149 295 597 288 603 -10 10 -82 -69 -108 -117
-14 -25 -46 -107 -72 -181 -51 -151 -101 -249 -181 -360 -49 -68 -92 -119
-268 -315 -55 -61 -58 -66 -42 -83 14 -16 23 -52 13 -52 -2 0 -51 -18 -110
-40 -153 -58 -322 -105 -472 -131 -168 -29 -459 -32 -605 -6 -187 33 -238 62
-110 62 49 0 74 5 83 15 87 95 311 389 420 552 97 146 197 311 191 317 -13 14
-102 -98 -175 -221 -48 -81 -109 -167 -142 -202 -32 -34 -71 -89 -88 -123 -17
-35 -45 -73 -65 -88 -19 -15 -60 -57 -90 -93 -60 -73 -124 -122 -161 -122 -46
0 -41 7 201 293 87 103 140 182 184 275 24 51 54 95 88 129 69 68 106 132 102
175 -3 31 -11 21 -127 -152 -166 -248 -275 -393 -379 -501 -109 -115 -232
-205 -232 -171 0 5 44 57 98 116 53 60 116 134 139 165 46 60 118 189 110 197
-2 3 -29 -26 -58 -63 -129 -163 -350 -386 -366 -369 -11 11 15 48 203 287 224
283 414 561 414 606 0 28 -130 -134 -313 -392 -125 -176 -221 -289 -303 -356
-105 -87 -101 -61 17 107 77 109 159 249 159 269 0 15 -25 -13 -89 -99 -68
-92 -105 -127 -148 -140 -42 -13 -32 12 40 101 111 137 265 374 470 723 l20
35 -42 -40 c-54 -52 -113 -138 -246 -360 -59 -99 -127 -205 -150 -235 -74 -96
-182 -186 -201 -167 -3 3 32 63 79 134 124 187 317 536 304 549 -9 9 -102
-131 -193 -290 -54 -93 -123 -203 -154 -245 -76 -103 -186 -198 -206 -179 -3
3 24 46 59 94 134 184 248 398 464 867 180 393 277 576 394 747 41 60 69 117
94 190 108 310 276 563 547 825 151 145 180 161 186 100 2 -27 -9 -41 -102
-128 -280 -261 -498 -599 -743 -1157 -64 -144 -303 -729 -303 -739 1 -12 53
94 171 351 389 845 547 1123 808 1422 115 131 339 321 357 303 4 -3 -47 -64
-112 -134 -342 -371 -597 -774 -830 -1312 -30 -69 -53 -129 -51 -134 4 -14
143 219 303 508 166 301 219 392 297 510 184 275 362 460 568 588 84 52 149
82 149 68 0 -6 -46 -47 -102 -93 -133 -107 -301 -276 -412 -414 -159 -198
-351 -503 -488 -779 -56 -112 -64 -135 -45 -135 26 0 59 48 81 121 87 282 508
834 856 1125 155 129 345 253 414 270 43 10 30 -3 -111 -113 -353 -273 -599
-528 -789 -818 -77 -118 -179 -303 -172 -311 12 -11 341 409 476 607 226 333
747 696 1248 869 365 126 662 174 1074 174 236 0 292 -4 510 -31 135 -18 283
-34 330 -38 103 -8 271 8 366 35 70 19 71 19 134 -1 124 -38 236 -50 585 -59
354 -9 436 -18 548 -60 l59 -22 23 22 c23 22 24 22 127 6 57 -9 240 -31 408
-51 501 -57 745 -106 955 -194 l95 -40 127 10 c421 32 996 -61 1456 -235 37
-14 67 -21 67 -16 0 5 -17 22 -37 39 -39 32 -118 62 -217 81 -84 17 -164 46
-200 74 -23 17 -55 27 -121 35 -156 21 -423 68 -767 135 -819 160 -1099 200
-1502 213 l-201 6 -65 33 c-94 48 -178 54 -970 64 -377 5 -809 16 -960 24
-352 20 -874 27 -1060 16z m2818 -722 c-5 -91 -45 -166 -133 -254 -129 -129
-153 -122 -59 18 35 53 89 147 120 209 63 125 79 131 72 27z m-5328 -45 c0
-41 -47 -115 -145 -228 -48 -55 -119 -152 -158 -215 -106 -172 -227 -282 -227
-207 0 32 92 212 142 278 60 79 360 397 376 398 7 1 12 -11 12 -26z m1578 0
c-4 -24 -65 -53 -111 -53 -50 0 -45 18 13 48 55 27 103 30 98 5z m-1832 -108
c-3 -8 -43 -72 -89 -142 -233 -353 -468 -814 -709 -1393 -48 -113 -89 -216
-93 -230 -6 -23 -5 -23 15 5 40 57 139 263 245 511 59 137 134 301 167 364 69
133 162 270 183 270 31 0 9 -116 -50 -255 -40 -96 -350 -757 -425 -905 -176
-350 -366 -644 -533 -822 -33 -36 -57 -48 -57 -30 0 10 66 118 180 296 85 132
170 289 170 316 0 25 -95 -114 -202 -294 -180 -305 -249 -416 -308 -494 -74
-100 -146 -179 -155 -170 -4 4 33 67 83 140 191 284 348 589 632 1228 312 705
520 1093 738 1382 132 175 230 279 208 223z m-255 -170 c-60 -114 -156 -274
-309 -519 -67 -106 -110 -196 -248 -520 -334 -785 -474 -1067 -689 -1391 -105
-158 -250 -338 -268 -332 -6 2 -16 18 -21 35 -10 38 3 58 51 78 40 17 61 45
163 214 105 174 278 525 425 860 64 146 153 348 198 450 214 485 412 846 608
1105 154 204 192 212 90 20z m5809 90 c0 -9 -7 -30 -16 -46 -9 -19 -13 -41 -9
-59 6 -25 3 -30 -20 -36 -14 -3 -32 -15 -40 -26 -9 -13 -20 -18 -30 -14 -25 9
-12 49 42 129 44 64 73 85 73 52z m-5960 -60 c0 -34 -39 -109 -120 -230 -100
-151 -140 -219 -162 -283 -11 -31 -41 -93 -68 -137 -109 -182 -191 -362 -425
-940 -92 -227 -201 -457 -279 -589 -93 -158 -263 -372 -282 -353 -3 3 24 56
61 117 129 215 246 462 470 1000 270 648 394 898 586 1180 86 125 194 260 209
260 6 0 10 -11 10 -25z m-202 -118 c3 -20 -18 -61 -81 -160 -201 -316 -356
-617 -542 -1052 -79 -186 -212 -527 -271 -698 -27 -81 -43 -113 -62 -125 -14
-9 -40 -49 -60 -91 -18 -40 -45 -84 -59 -97 -25 -23 -73 -33 -73 -15 0 12 234
583 343 836 128 298 285 648 401 893 53 112 96 206 96 209 0 3 -9 -2 -21 -13
-36 -33 -106 -156 -169 -299 -77 -174 -101 -222 -206 -410 -115 -207 -141
-273 -160 -402 -26 -174 -128 -416 -231 -548 -72 -91 -75 -64 -14 132 194 623
472 1220 754 1618 102 145 131 180 145 171 19 -11 14 -55 -9 -88 -12 -16 -19
-31 -17 -33 10 -10 51 30 95 93 69 99 84 113 113 110 19 -2 26 -10 28 -31z
m-1198 -14 c46 -30 80 -67 80 -85 0 -31 -37 -20 -85 25 -62 60 -59 103 5 60z
m157 -223 c17 -32 23 -60 23 -107 0 -38 -4 -63 -11 -63 -39 0 -69 51 -69 119
0 20 -4 51 -10 70 -5 19 -7 38 -4 43 10 16 47 -17 71 -62z m633 30 c0 -5 -61
-118 -135 -252 -335 -600 -528 -1048 -634 -1470 -27 -111 -42 -154 -54 -156
-28 -6 -40 35 -31 107 5 36 8 84 9 106 0 31 5 42 24 51 20 10 30 31 48 96 165
582 393 1059 690 1446 59 76 83 97 83 72z m-251 -207 c-24 -54 -94 -197 -156
-318 -63 -121 -149 -292 -192 -381 -77 -157 -182 -416 -196 -481 -9 -44 -22
-50 -37 -18 -19 42 11 161 85 337 95 226 103 257 55 205 -13 -13 -38 -61 -56
-105 -40 -98 -62 -128 -87 -119 -13 6 -16 13 -10 35 4 15 8 43 9 63 1 24 11
47 32 71 39 44 72 114 136 282 77 204 45 188 -48 -24 -49 -112 -90 -181 -113
-188 -11 -4 -13 7 -9 56 4 44 16 79 42 126 20 36 52 95 71 130 38 69 68 146
60 154 -9 9 -46 -31 -66 -71 -22 -42 -39 -41 -39 3 0 44 51 94 142 140 85 42
125 51 114 25 -3 -8 -9 -22 -12 -30 -14 -34 28 -1 76 61 52 66 70 78 70 45 0
-25 -102 -229 -193 -386 -42 -71 -74 -131 -72 -134 18 -17 107 113 206 299
104 197 143 264 188 320 32 40 36 42 39 23 2 -13 -16 -67 -39 -120z m7171
-163 c84 -14 155 -37 372 -121 97 -38 181 -69 186 -69 5 0 17 -9 27 -20 22
-24 17 -98 -11 -156 -22 -45 -35 -47 -141 -24 -34 8 -66 11 -70 6 -11 -10 14
-23 61 -30 52 -9 86 -31 86 -56 0 -24 -21 -25 -105 -5 -90 21 -219 65 -435
148 -148 56 -212 76 -264 81 -131 11 -106 42 32 40 45 0 82 2 82 6 0 7 -73 41
-117 55 -28 8 -29 19 -3 55 26 36 81 71 140 86 57 16 79 16 160 4z m-1472
-307 c2 -11 -8 -34 -22 -51 -31 -36 -20 -45 47 -36 23 3 49 0 57 -5 13 -9 13
-12 -1 -26 -9 -9 -31 -20 -50 -24 -45 -9 -192 1 -196 14 -3 9 69 117 108 163
14 17 53 -6 57 -35z m1420 -48 c34 -8 129 -39 210 -69 81 -30 174 -62 207 -71
80 -23 91 -35 30 -35 -67 0 -181 29 -355 89 -80 27 -171 57 -202 66 -32 9 -58
21 -58 26 0 14 97 11 168 -6z m242 -165 c67 -30 83 -46 56 -56 -22 -8 -226 58
-226 73 0 31 78 23 170 -17z m-1446 -121 c21 -6 57 -29 80 -51 l41 -40 -40 8
c-65 13 -187 10 -222 -5 -56 -23 -59 -21 167 -113 80 -33 154 -62 165 -65 18
-6 19 -5 6 11 -18 21 -74 50 -155 81 -70 26 -80 48 -23 53 51 4 134 -21 239
-74 113 -57 139 -58 102 -6 -9 13 -14 26 -11 29 3 3 45 -4 94 -15 100 -23 161
-33 432 -67 107 -13 199 -29 205 -35 20 -20 -20 -176 -71 -280 -39 -79 -63
-111 -138 -186 -151 -154 -339 -262 -735 -424 -96 -39 -205 -89 -242 -111
-101 -61 -177 -86 -245 -80 -31 2 -6 40 87 131 92 90 114 120 92 120 -15 0
-87 -56 -168 -129 -42 -39 -99 -82 -127 -96 -75 -37 -151 -31 -117 10 7 8 60
47 118 87 59 39 126 87 150 106 43 35 118 129 110 138 -7 7 -74 -46 -178 -141
-52 -47 -119 -102 -149 -122 -84 -56 -220 -91 -222 -58 -1 6 36 32 82 58 132
76 223 149 382 308 138 138 167 179 114 163 -35 -10 -58 -35 -81 -85 -18 -40
-43 -63 -181 -166 -242 -180 -357 -253 -400 -253 -44 0 23 67 173 173 133 94
220 171 205 180 -18 11 -106 -41 -197 -118 -48 -42 -105 -84 -127 -95 -43 -23
-119 -27 -119 -7 1 6 35 35 78 64 89 60 222 170 222 183 0 22 -32 7 -96 -45
-37 -31 -79 -58 -93 -61 -14 -3 -31 -7 -37 -9 -6 -2 -17 0 -23 5 -23 14 -2 45
52 76 40 23 53 36 55 57 4 36 -20 36 -47 0 -20 -28 -20 -28 -48 -10 -83 54
-181 87 -318 107 -99 15 -445 25 -445 14 0 -13 241 -51 405 -65 72 -6 132 -13
134 -15 11 -10 -18 -24 -68 -34 -144 -27 -384 -1 -510 55 -63 29 -80 55 -36
55 22 0 24 2 14 18 -30 49 32 109 100 98 20 -3 61 -12 91 -21 30 -8 125 -24
210 -35 192 -26 301 -47 364 -71 46 -19 49 -19 76 -2 47 31 141 121 131 127
-14 9 -53 -9 -75 -33 -10 -11 -23 -18 -27 -15 -18 11 -8 39 27 75 58 59 17 82
-61 34 -76 -47 -139 -18 -77 35 l30 25 -96 0 c-83 0 -104 4 -147 25 -43 21
-50 29 -48 52 l2 28 -37 -16 c-104 -46 -148 -42 -124 11 6 14 8 25 4 25 -25 0
-238 -62 -270 -79 -46 -23 -96 -78 -117 -126 -15 -37 -24 -42 -43 -23 -15 15
-16 53 -2 78 5 10 40 42 77 71 48 39 62 55 50 57 -25 5 -98 -40 -140 -87 -42
-46 -97 -153 -118 -226 -20 -72 -18 -208 5 -273 21 -62 17 -73 -14 -40 -63 65
-84 192 -55 322 32 144 149 335 251 408 24 17 70 36 105 44 94 21 357 29 475
14 210 -26 426 -96 578 -188 86 -51 206 -155 206 -178 0 -8 -45 -51 -100 -96
-99 -82 -109 -103 -44 -88 45 10 98 52 131 101 16 24 33 39 42 37 20 -4 27
-44 10 -64 -6 -8 -9 -17 -6 -20 5 -6 107 89 107 100 0 4 -21 29 -46 56 -29 31
-44 55 -40 65 9 24 29 18 66 -20 38 -39 60 -45 60 -16 0 30 -47 78 -88 92 -97
31 -140 68 -146 125 -3 26 -10 30 -65 47 -34 10 -61 23 -61 31 0 24 61 105
125 165 134 125 268 174 389 140z m-2114 -327 c-38 -98 -52 -114 -79 -81 l-18
23 -7 -22 c-9 -29 -34 -28 -45 1 -12 33 5 61 69 107 32 23 68 56 81 73 l24 32
3 -26 c2 -15 -11 -63 -28 -107z m124 9 c9 -14 -42 -188 -75 -253 -36 -72 -56
-98 -77 -98 -15 0 -14 44 3 85 8 20 8 20 -13 1 -20 -17 -22 -18 -28 -2 -29 75
152 329 190 267z m-331 -108 c7 -13 -70 -195 -91 -216 -39 -38 -56 7 -26 66 9
17 19 54 23 81 5 40 11 53 31 63 28 14 57 17 63 6z m-5513 -243 c233 -409 352
-581 521 -755 85 -87 112 -123 133 -172 45 -107 28 -178 -31 -135 -100 73
-255 266 -455 567 -88 132 -162 242 -165 245 -12 11 12 -51 52 -135 84 -174
305 -476 507 -692 47 -50 101 -113 118 -138 55 -80 89 -205 56 -205 -20 0
-100 65 -181 146 -97 98 -201 232 -345 443 -69 101 -161 231 -204 290 l-80
106 -9 90 c-14 130 -11 197 8 211 22 16 20 28 -29 148 -44 107 -64 194 -51
216 11 18 22 2 155 -230z m5596 124 c-36 -78 -42 -125 -22 -165 9 -18 16 -36
16 -41 0 -10 -187 -211 -201 -216 -16 -6 -9 73 12 136 13 40 36 79 64 110 33
36 42 54 38 70 -3 12 -2 33 1 48 8 30 109 141 114 125 2 -6 -8 -36 -22 -67z
m-258 40 c7 -6 -69 -200 -92 -234 -26 -40 -71 -69 -86 -54 -6 6 4 39 26 89 20
44 46 106 58 138 13 32 29 63 37 68 12 7 46 4 57 -7z m1281 -70 c69 -14 142
-34 162 -45 36 -18 79 -66 79 -88 0 -15 -56 -14 -181 3 -57 8 -148 18 -201 22
-68 5 -98 11 -98 19 0 17 18 30 63 44 32 11 37 17 37 42 0 16 3 29 6 29 4 0
63 -12 133 -26z m-1269 -229 c27 -32 -17 -131 -116 -261 -60 -79 -64 -87 -50
-103 9 -10 16 -22 16 -28 0 -21 -82 -84 -155 -120 -114 -57 -113 -33 4 107 39
47 67 86 62 88 -20 7 -52 -20 -90 -76 -46 -67 -78 -99 -106 -104 -40 -6 -28
36 37 132 59 87 63 96 64 152 0 32 4 62 10 68 14 14 152 68 159 62 12 -13 3
-50 -20 -82 -35 -47 -20 -53 21 -8 29 32 34 45 34 85 1 45 3 50 43 75 48 31
69 34 87 13z m170 -124 c0 -12 -28 -42 -72 -78 -51 -41 -80 -73 -96 -106 -22
-46 -24 -47 -67 -47 -37 0 -45 3 -45 19 0 32 38 69 125 122 46 28 96 64 111
80 32 34 44 36 44 10z m908 8 c167 -18 415 -63 419 -76 13 -40 -209 -37 -477
6 -274 44 -254 39 -240 56 20 25 146 31 298 14z m-1594 -74 c10 -26 -14 -116
-48 -180 -43 -83 -272 -312 -292 -292 -12 11 10 51 116 209 114 172 194 278
209 278 5 0 12 -7 15 -15z m141 -37 c-35 -115 -235 -398 -281 -398 -8 0 -14 2
-14 4 0 3 20 47 44 100 55 117 119 218 177 274 48 47 85 57 74 20z m1565 -12
c91 -14 185 -26 210 -26 60 0 77 -11 54 -35 -46 -46 -169 -68 -321 -58 -65 4
-93 10 -93 18 0 15 50 35 94 36 29 1 28 2 -9 9 -22 5 -115 16 -207 26 -124 13
-168 21 -168 30 0 8 12 16 28 20 15 3 32 8 37 10 23 9 221 -7 375 -30z m1915
-100 c13 -13 31 -49 40 -79 18 -62 45 -103 75 -112 27 -8 26 -14 -15 -82 -19
-32 -64 -128 -100 -213 -84 -195 -133 -290 -152 -290 -8 0 -28 14 -44 31 -28
30 -30 31 -54 15 -30 -20 -45 -54 -45 -102 0 -33 -20 -48 -35 -24 -14 22 -46
9 -72 -31 -23 -35 -30 -40 -55 -35 -32 6 -34 0 -41 -98 -3 -43 -9 -63 -23 -73
-35 -25 -47 -13 -50 56 -2 35 -6 66 -9 69 -14 14 -36 -29 -46 -89 -6 -35 -14
-68 -19 -73 -14 -14 -39 1 -45 29 -18 86 -15 82 -30 62 -7 -10 -21 -49 -30
-85 -19 -81 -28 -97 -49 -89 -13 5 -16 21 -16 77 0 57 -3 72 -17 77 -25 10
-49 -28 -63 -99 -15 -77 -25 -98 -49 -98 -25 0 -32 21 -24 75 5 41 4 45 -15
45 -15 0 -28 -12 -41 -38 -24 -47 -44 -65 -68 -60 -18 4 -18 9 -6 71 4 20 1
27 -10 27 -23 0 -38 -25 -51 -82 -9 -42 -16 -53 -31 -53 -17 0 -20 6 -18 48 3
41 0 47 -17 47 -14 0 -30 -16 -48 -45 -33 -56 -58 -56 -56 -2 2 45 -20 50 -56
12 -31 -33 -44 -32 -36 5 4 23 1 33 -14 42 -25 16 -25 45 0 83 25 38 25 62 0
70 -28 9 -37 1 -70 -64 -28 -57 -55 -80 -71 -64 -10 10 17 119 36 150 12 18
12 22 -1 27 -9 3 -24 6 -35 6 -28 0 -24 11 27 90 53 83 147 275 142 291 -7 22
-58 -45 -73 -97 -18 -63 -50 -103 -85 -106 -24 -3 -25 -1 -22 41 1 24 20 89
41 145 21 56 34 103 29 105 -17 6 -82 -54 -122 -111 -50 -73 -138 -288 -124
-305 19 -23 37 -14 47 25 6 20 11 44 11 52 0 24 29 60 58 71 39 15 47 -3 22
-51 -12 -24 -42 -95 -67 -159 -24 -64 -55 -136 -69 -160 -13 -24 -24 -46 -24
-49 0 -13 42 35 65 74 36 61 105 94 105 50 0 -7 -18 -39 -39 -72 -46 -69 -61
-114 -38 -114 8 0 25 16 37 35 22 36 29 39 68 29 26 -7 29 -30 6 -56 -20 -22
-11 -26 61 -30 36 -2 50 -7 50 -18 0 -20 -41 -27 -165 -29 -127 -1 -209 16
-445 92 -205 66 -300 87 -400 87 -42 0 -75 4 -75 10 0 18 51 23 159 16 93 -5
111 -4 143 13 39 20 58 13 58 -21 0 -24 14 -23 62 4 27 16 63 55 113 125 66
92 72 104 59 118 -24 24 -44 18 -50 -15 -7 -31 -31 -41 -40 -16 -3 8 4 32 16
55 18 36 25 41 54 41 67 0 116 70 116 165 0 32 -2 36 -15 25 -8 -7 -24 -39
-36 -71 -22 -61 -43 -75 -54 -38 -11 35 3 81 45 144 22 33 40 66 40 73 0 18
-34 15 -53 -5 -29 -33 -68 -123 -80 -184 -13 -70 -31 -84 -59 -48 -27 32 -19
70 29 150 22 35 46 84 54 109 13 40 19 46 64 63 97 36 238 57 389 57 150 0
215 -8 335 -43 71 -20 74 -20 87 -2 7 10 15 22 16 27 2 5 55 10 118 13 63 2
141 9 173 15 158 31 347 115 612 273 88 53 164 96 168 96 4 1 19 -10 32 -23z
m-6639 -98 c-11 -65 -68 -162 -171 -291 -52 -66 -108 -141 -124 -168 -38 -61
-58 -57 -63 12 -3 46 0 53 31 82 41 40 138 164 215 277 97 140 124 162 112 88z
m4958 12 c42 -39 -301 -68 -460 -39 -126 22 -166 41 -111 52 37 7 561 -5 571
-13z m-4857 -40 c-13 -103 -117 -258 -271 -409 -144 -143 -101 -42 96 219 69
93 134 182 144 199 25 43 38 39 31 -9z m3681 -2 c-6 -18 -230 -168 -250 -168
-10 0 -18 3 -18 8 0 19 119 137 155 153 47 22 119 26 113 7z m-5402 -283 c298
-380 345 -437 465 -560 l127 -130 -5 -52 c-5 -47 -2 -56 26 -94 35 -49 29 -69
-15 -46 -34 18 -77 63 -127 133 -48 67 -108 120 -157 140 -22 9 -42 24 -45 34
-12 39 -110 177 -228 323 -67 84 -138 177 -158 207 -79 119 -150 293 -133 322
10 16 91 -73 250 -277z m5902 263 c18 -18 15 -63 -6 -88 -18 -22 -20 -23 -87
-10 -85 16 -220 16 -260 1 -45 -19 -14 -31 80 -31 127 0 185 -26 185 -83 0
-16 -5 -18 -27 -13 -16 3 -86 15 -156 25 -73 11 -146 29 -171 41 -49 23 -73
19 -132 -27 -29 -22 -37 -24 -45 -12 -21 34 -6 54 82 101 35 18 66 42 72 56
12 27 22 27 223 3 87 -10 157 -1 192 27 32 25 35 25 50 10z m-4101 -44 c-8
-49 -83 -200 -148 -299 -29 -44 -94 -121 -144 -171 -98 -99 -166 -144 -191
-123 -28 23 -16 48 33 72 41 19 62 43 166 187 217 303 268 370 279 370 7 0 8
-14 5 -36z m113 -43 c26 -50 8 -97 -82 -204 -64 -78 -99 -157 -68 -157 18 0
82 63 120 119 70 103 98 112 86 27 -9 -58 -64 -169 -116 -236 -62 -79 -301
-320 -317 -320 -7 0 -13 9 -13 20 0 40 29 88 98 167 78 88 112 139 112 166 0
55 -82 -16 -167 -145 -96 -146 -146 -169 -99 -45 36 95 64 140 217 342 74 99
149 204 165 233 31 55 47 64 64 33z m4239 1 c53 -20 62 -38 26 -54 -22 -10
-38 -8 -98 10 -105 30 -129 41 -122 52 10 16 145 11 194 -8z m-314 -176 c134
-43 224 -119 241 -204 6 -30 5 -32 -23 -32 -16 0 -155 31 -307 70 -414 104
-420 106 -374 131 22 12 154 7 208 -7 15 -4 22 -3 17 2 -5 5 -25 14 -45 19
-19 6 -37 16 -39 22 -14 40 196 39 322 -1z m-750 3 c4 -5 1 -81 -6 -168 -11
-140 -11 -163 4 -206 8 -27 14 -53 11 -57 -9 -13 -32 3 -38 27 -3 13 -15 27
-26 30 -19 6 -20 15 -20 151 0 126 3 150 21 189 20 43 41 56 54 34z m1146 -1
c3 -27 -4 -45 -34 -90 -34 -54 -31 -52 -58 -38 -30 16 -23 55 17 100 35 39 73
53 75 28z m-6369 -91 c35 -40 116 -145 180 -232 146 -200 192 -253 350 -405
147 -140 207 -215 255 -317 35 -75 55 -169 35 -162 -20 7 -544 563 -625 664
-97 121 -170 232 -226 343 -111 221 -100 259 31 109z m4008 36 c0 -5 -14 -31
-30 -60 -67 -117 -231 -259 -385 -333 -152 -74 -143 -53 43 103 81 68 192 163
247 210 90 79 125 101 125 80z m-1776 -11 c7 -12 -16 -96 -42 -155 -55 -123
-227 -320 -404 -462 -41 -33 -84 -76 -94 -95 -22 -40 -47 -46 -52 -12 -3 17
16 43 72 103 42 45 155 186 251 315 220 294 253 332 269 306z m121 -64 c-42
-146 -212 -374 -403 -541 -141 -123 -252 -198 -252 -170 0 3 55 63 123 132
133 137 255 276 387 441 98 123 131 160 143 160 4 0 5 -10 2 -22z m3286 -13
c46 -8 161 -37 254 -65 94 -28 196 -53 227 -57 72 -7 82 -19 75 -84 -4 -30 -2
-60 4 -71 9 -16 6 -25 -13 -44 -12 -14 -36 -53 -53 -87 -34 -70 -25 -67 -168
-52 -67 8 -67 8 -65 -16 3 -22 -1 -24 -52 -27 -43 -3 -87 7 -205 43 -82 26
-156 49 -164 51 -10 3 -11 7 -1 19 22 27 72 27 175 -1 55 -14 113 -29 130 -32
26 -4 28 -3 17 10 -7 9 -36 19 -64 22 -63 9 -72 14 -57 32 17 21 101 17 209
-11 96 -25 183 -33 164 -16 -14 14 -164 56 -304 86 -162 35 -255 66 -255 85 0
12 15 15 80 13 65 -1 107 -10 225 -48 144 -46 245 -67 225 -48 -20 20 -162 72
-265 97 -90 22 -324 66 -351 66 -19 0 -7 28 16 38 43 20 117 14 226 -18 110
-32 229 -50 229 -33 0 9 -216 70 -355 99 -110 23 -124 40 -48 54 58 12 74 11
164 -5z m-1931 -7 c0 -27 -65 -124 -114 -173 -28 -28 -77 -68 -109 -89 -92
-60 -217 -105 -217 -77 0 15 104 106 246 214 78 58 147 113 154 122 15 18 40
20 40 3z m1193 -40 c-10 -11 -90 -69 -178 -128 -151 -102 -274 -204 -262 -217
8 -7 78 34 210 124 111 75 235 143 262 143 8 0 15 -6 15 -14 0 -27 -52 -76
-124 -117 -106 -61 -169 -106 -184 -130 -14 -21 -13 -22 19 -15 18 3 57 25 87
49 93 73 164 117 189 117 46 0 22 -29 -68 -79 -63 -35 -94 -65 -84 -80 13 -22
55 -10 105 32 69 56 120 87 146 87 53 0 36 -33 -35 -69 -31 -16 -65 -38 -75
-50 l-19 -21 60 6 c68 7 113 0 113 -19 0 -6 -34 -27 -75 -46 -47 -21 -88 -48
-110 -72 -38 -42 -43 -57 -21 -65 20 -8 55 13 98 58 24 24 47 38 63 38 38 0
32 -29 -15 -75 -41 -40 -51 -71 -25 -81 8 -3 24 1 37 10 36 26 66 21 70 -11 2
-22 10 -29 36 -34 18 -4 35 -9 38 -12 3 -2 -5 -21 -17 -41 -19 -32 -20 -42
-10 -79 10 -39 8 -45 -24 -98 -54 -89 -124 -319 -96 -319 20 0 48 41 65 97 22
71 50 103 89 103 l30 0 -7 -53 c-16 -143 -115 -393 -213 -540 -87 -131 -230
-265 -345 -323 -26 -13 -54 -24 -63 -24 -27 0 -2 32 135 175 135 140 169 191
195 292 8 32 20 60 25 61 35 12 110 105 110 137 0 3 -15 5 -33 5 -31 0 -35 -4
-71 -77 -79 -161 -228 -359 -358 -473 -79 -70 -240 -190 -255 -190 -31 0 -2
36 158 195 164 164 287 317 277 345 -6 18 -86 -56 -269 -244 -142 -146 -273
-256 -306 -256 -38 0 13 64 171 214 148 140 204 206 231 270 15 35 15 37 -2
27 -10 -5 -96 -90 -191 -190 -95 -99 -203 -203 -240 -231 -81 -61 -168 -107
-179 -96 -4 4 44 56 107 114 191 176 360 360 360 393 0 13 -67 -17 -107 -47
-19 -14 -76 -76 -127 -137 -124 -149 -174 -194 -281 -251 -49 -27 -102 -57
-117 -68 -30 -21 -38 -22 -38 -7 0 23 67 94 184 193 172 148 301 285 283 303
-8 8 -88 -53 -281 -215 -138 -115 -303 -232 -328 -232 -4 0 -8 8 -8 18 0 21
98 118 195 192 99 76 154 126 203 184 51 62 54 81 11 72 -59 -12 -101 -40
-203 -136 -57 -53 -119 -106 -137 -117 -45 -27 -106 -46 -125 -39 -13 5 -13 9
0 35 21 39 67 76 145 116 36 18 77 45 90 59 l24 26 -24 0 c-46 -1 -136 -47
-262 -133 -126 -87 -255 -157 -290 -157 -28 0 -32 28 -7 55 13 14 61 39 107
56 87 33 105 45 79 55 -26 10 -128 -17 -234 -63 -120 -51 -203 -75 -216 -62
-5 5 -8 11 -5 13 2 2 78 43 169 91 91 48 206 113 255 144 94 59 225 159 225
172 0 4 -19 5 -42 2 -31 -4 -60 -19 -103 -53 -80 -63 -211 -147 -315 -203
-110 -58 -265 -119 -293 -115 l-22 3 25 23 c14 13 63 43 110 68 95 49 138 79
128 89 -13 14 -126 -29 -228 -86 -115 -64 -193 -90 -211 -72 -14 14 48 60 261
191 91 55 187 117 215 136 44 32 47 36 25 36 -35 0 -128 -46 -234 -115 -50
-32 -119 -73 -155 -91 -70 -34 -185 -63 -198 -50 -13 13 59 69 242 186 175
111 361 247 352 257 -12 11 -53 -12 -149 -84 -166 -123 -189 -133 -210 -88 -9
19 -8 29 6 49 20 32 20 36 -1 36 -28 0 -112 -43 -218 -110 -107 -68 -230 -130
-257 -130 -48 0 -2 45 239 233 100 78 180 143 178 145 -6 6 -80 -39 -235 -141
-147 -97 -263 -160 -287 -155 -10 2 28 42 103 109 65 59 205 189 309 289 218
209 379 347 515 442 74 52 101 76 118 110 19 39 28 46 78 62 42 13 59 15 68 6
8 -8 -3 -23 -44 -58 -30 -26 -83 -73 -118 -106 -89 -85 -237 -276 -214 -276
22 0 161 133 277 265 125 141 261 265 291 265 19 0 18 -29 -5 -65 -10 -16 -54
-69 -99 -117 -112 -120 -135 -167 -53 -107 23 17 91 90 152 163 119 142 186
204 261 242 45 23 78 31 78 19 0 -3 -51 -56 -114 -118 -113 -112 -216 -237
-216 -264 0 -7 7 -16 16 -20 21 -8 63 34 86 87 21 49 220 258 318 334 59 46
137 89 183 100 48 12 31 -18 -50 -85 -183 -151 -397 -379 -374 -402 6 -6 22
-3 47 9 28 14 50 41 91 109 70 114 77 122 199 205 56 38 122 92 147 120 30 33
53 50 69 50 13 0 38 4 55 9 37 11 52 -1 32 -26 -7 -8 -81 -68 -164 -133 -82
-64 -171 -140 -196 -167 -52 -55 -105 -131 -97 -138 3 -3 77 61 164 141 186
172 288 251 389 299 75 36 109 44 103 23 -2 -7 -89 -81 -192 -164 -226 -182
-369 -320 -346 -334 8 -5 20 -10 27 -10 22 0 76 55 119 122 24 37 48 68 54 68
6 0 76 50 157 111 188 143 271 196 357 230 76 30 98 29 69 -3z m-2033 -13 c0
-30 -42 -98 -88 -144 -26 -26 -104 -86 -174 -134 -180 -126 -179 -123 -55
-119 93 3 116 0 260 -38 86 -22 181 -41 210 -43 71 -3 73 -24 10 -108 -46 -60
-79 -92 -309 -289 -54 -47 -121 -114 -150 -149 -32 -40 -70 -74 -100 -90 -27
-14 -84 -49 -127 -78 -115 -77 -237 -117 -237 -78 0 15 20 32 128 110 59 43
76 65 50 65 -20 0 -97 -47 -175 -107 -45 -34 -78 -53 -88 -49 -36 13 -10 54
80 126 36 28 65 55 65 60 0 16 -38 -2 -84 -40 -49 -41 -101 -59 -119 -41 -7 7
15 44 75 123 105 141 103 138 82 138 -9 0 -49 -34 -88 -75 -54 -58 -78 -76
-101 -78 -56 -4 -46 21 67 169 21 27 38 52 38 57 0 21 -32 0 -96 -62 -64 -62
-113 -89 -136 -74 -28 17 27 86 147 185 90 75 160 146 152 155 -12 11 -94 -44
-193 -132 -59 -52 -114 -95 -122 -95 -30 0 13 89 79 165 48 54 140 116 269
181 141 70 255 135 295 168 l30 25 -32 1 c-46 0 -145 -33 -203 -69 -29 -18
-100 -69 -158 -113 -107 -81 -138 -89 -87 -22 48 63 397 414 411 414 19 0 -1
-39 -63 -129 -24 -35 -42 -65 -39 -68 8 -8 91 40 176 102 143 105 180 123 180
86 0 -23 -32 -58 -95 -101 -48 -34 -49 -35 -23 -38 47 -6 96 28 206 140 102
104 132 125 132 93z m380 -15 c0 -40 -123 -180 -215 -245 -59 -42 -215 -125
-235 -125 -44 0 50 99 199 209 57 42 131 97 165 123 60 46 86 58 86 38z m195
0 c19 -30 -100 -165 -213 -242 -73 -49 -212 -121 -220 -114 -23 23 97 139 280
270 73 52 136 95 140 96 4 0 10 -4 13 -10z m-395 -31 c0 -6 -27 -37 -59 -69
-157 -153 -351 -279 -351 -228 0 7 39 51 88 99 61 60 118 104 191 147 104 62
131 72 131 51z m3229 -308 c20 -13 6 -57 -23 -76 -27 -18 -76 -11 -76 10 0 19
52 75 70 75 8 0 21 -4 29 -9z m-674 -212 c11 -17 -26 -49 -105 -89 -153 -78
-182 -157 -125 -339 31 -96 23 -120 -20 -69 -49 58 -69 115 -69 199 -1 68 3
84 34 144 20 39 51 81 72 98 62 50 196 85 213 56z m461 -114 c239 -70 266 -79
271 -92 6 -16 -55 -120 -74 -127 -22 -9 -43 5 -43 29 0 12 7 28 15 35 8 7 15
16 15 20 0 10 -124 65 -200 88 -57 17 -111 28 -308 58 -47 7 -35 28 19 34 72
8 178 -7 305 -45z m1795 -25 c29 -6 56 -14 60 -18 3 -4 9 -31 12 -60 l6 -53
-37 3 -37 3 -6 -75 c-12 -145 -75 -275 -226 -466 -41 -52 -80 -93 -87 -91 -21
7 -18 38 8 78 15 21 24 39 20 39 -19 0 -50 -30 -114 -110 -40 -50 -78 -89 -84
-87 -21 7 -18 47 8 104 15 31 25 58 23 60 -8 8 -57 -40 -93 -90 -21 -28 -51
-66 -67 -84 l-30 -32 24 -10 c13 -5 60 -13 103 -18 91 -9 108 -26 45 -43 -34
-10 -59 -8 -145 9 -57 12 -114 21 -128 21 -44 0 -37 17 18 48 29 17 63 43 75
58 21 27 28 54 13 54 -18 0 -91 -60 -128 -104 -42 -50 -54 -53 -124 -32 -66
20 -253 44 -435 56 -192 13 -378 35 -460 56 -150 38 -224 71 -195 89 22 14 7
24 -72 45 -136 36 -218 80 -218 117 0 25 62 13 239 -47 98 -33 191 -60 209
-60 49 0 83 -16 75 -37 -6 -14 -2 -14 24 5 66 47 132 144 249 365 48 92 96
177 106 187 27 29 155 26 337 -5 236 -41 309 -34 577 55 235 79 331 93 455 70z
m-1847 -94 c30 -13 67 -27 84 -31 61 -13 64 -65 4 -65 -33 0 -19 -14 30 -30
21 -6 40 -16 44 -21 3 -5 2 -39 -2 -76 l-7 -66 -61 6 c-59 6 -178 42 -408 124
-117 42 -130 50 -108 63 26 17 92 11 183 -16 86 -25 106 -26 93 -5 -8 12 -50
25 -135 42 -66 13 -120 47 -107 67 13 21 96 13 193 -18 93 -30 149 -38 138
-21 -3 5 -19 12 -35 16 -32 7 -56 38 -44 56 9 15 73 4 138 -25z m414 -34 c2
-22 -5 -48 -22 -76 -28 -49 -82 -99 -100 -93 -24 8 -15 36 28 91 25 32 48 71
51 88 9 41 39 34 43 -10z m-740 -153 c91 -21 245 -79 362 -137 85 -42 96 -63
62 -123 -19 -34 -19 -34 -91 -33 -101 2 -169 38 -293 153 -97 90 -137 117
-213 141 -34 11 -37 14 -20 21 25 9 88 2 193 -22z m2252 -31 c-1 -100 -94
-252 -250 -410 -100 -102 -130 -124 -130 -96 0 6 45 66 100 134 124 152 199
263 235 349 15 36 32 65 37 65 4 0 8 -19 8 -42z m-2438 -144 c55 -16 69 -26
49 -38 -5 -3 -52 -3 -105 1 -69 4 -96 10 -96 19 0 35 64 42 152 18z m-212
-104 l0 -69 59 2 c83 3 92 -8 64 -81 -11 -31 -36 -92 -54 -134 -18 -43 -29
-81 -25 -85 18 -19 63 25 98 97 20 41 41 80 47 87 15 16 35 7 51 -23 12 -21
18 -23 47 -18 25 5 34 2 39 -11 9 -23 -20 -124 -57 -198 -48 -95 -199 -241
-229 -222 -6 3 11 36 39 78 49 74 111 188 111 207 0 23 -53 -27 -164 -155
-142 -162 -242 -249 -313 -270 -42 -12 -24 16 77 121 101 105 158 179 147 191
-9 8 -56 -29 -164 -130 -89 -84 -172 -137 -213 -137 -11 0 -20 4 -20 9 0 5 48
50 108 99 226 189 319 315 346 470 3 17 1 32 -4 32 -15 0 -50 -56 -105 -173
-46 -96 -59 -115 -92 -134 -21 -11 -67 -47 -103 -78 -36 -32 -87 -68 -113 -80
-26 -12 -57 -31 -67 -40 -11 -10 -23 -16 -26 -12 -12 12 8 43 45 69 52 36 188
193 234 271 21 34 45 87 53 117 10 36 28 66 50 88 25 24 34 42 34 65 0 43 17
99 32 109 7 4 25 8 41 8 27 0 27 0 27 -70z m-2496 -56 c24 -9 19 -30 -15 -59
-42 -35 -89 -58 -217 -106 -126 -48 -152 -55 -152 -41 0 19 142 127 217 166
27 14 120 43 145 45 3 1 13 -2 22 -5z m-2655 -144 c4 0 43 -39 86 -86 80 -88
88 -114 29 -100 -28 7 -59 36 -133 125 -35 42 -41 55 -30 62 8 5 20 7 27 4 8
-3 17 -5 21 -5z m5560 -96 c46 -59 15 -171 -83 -301 -74 -97 -246 -247 -263
-229 -8 8 -10 5 80 122 72 95 163 264 192 354 9 30 18 61 20 68 7 20 32 14 54
-14z m137 -125 c-11 -112 -61 -214 -144 -295 -61 -60 -143 -104 -142 -76 1 4
37 57 80 117 44 61 103 155 131 210 63 124 58 117 71 109 7 -4 8 -28 4 -65z
m116 -55 c-5 -59 -52 -150 -122 -237 -88 -108 -99 -103 -54 25 35 99 80 180
121 223 43 44 59 41 55 -11z m-2408 -13 c18 -29 -105 -111 -168 -111 l-30 0
28 29 c24 25 137 91 157 91 4 0 10 -4 13 -9z m3056 -58 c-1 -74 -141 -253
-197 -253 -25 0 -12 22 78 146 86 117 119 147 119 107z m-577 -25 c74 -100 60
-261 -27 -302 -18 -9 -39 -16 -45 -16 -25 0 -21 31 9 75 38 56 60 106 60 140
0 44 -28 28 -66 -39 -33 -57 -65 -86 -94 -86 -20 0 -8 32 38 102 26 40 56 92
66 116 10 23 23 42 27 42 4 0 19 -15 32 -32z m303 -2 c8 -20 -18 -65 -64 -110
-36 -34 -62 -41 -62 -16 0 5 23 35 50 66 28 31 50 61 50 66 0 13 20 9 26 -6z
m124 -8 c0 -7 -11 -36 -24 -64 -17 -37 -32 -54 -52 -61 -55 -19 -70 8 -35 60
32 50 111 95 111 65z m268 -38 c3 -40 0 -46 -50 -94 -57 -55 -151 -111 -169
-101 -6 5 -4 16 7 33 30 46 188 212 199 209 6 -2 11 -23 13 -47z m178 -3 c-6
-25 -145 -157 -165 -157 -28 0 -5 37 72 114 80 81 106 93 93 43z"/>
<path d="M9805 4331 c6 -6 33 -14 60 -17 40 -5 48 -4 38 6 -6 7 -33 15 -60 17
-35 4 -45 2 -38 -6z"/>
<path d="M8098 3843 c-30 -8 -20 -20 21 -26 22 -3 85 -28 142 -56 63 -31 115
-51 136 -51 45 0 36 12 -45 57 -109 61 -203 90 -254 76z"/>
<path d="M7996 3751 c-3 -5 11 -11 32 -14 20 -4 74 -25 120 -47 80 -38 142
-51 142 -30 0 6 -5 10 -10 10 -6 0 -55 20 -109 45 -93 43 -162 57 -175 36z"/>
<path d="M8040 3631 c37 -32 183 -111 206 -111 22 0 17 25 -11 59 -29 33 -105
65 -180 76 l-50 7 35 -31z"/>
<path d="M7240 3569 c0 -5 5 -7 10 -4 6 3 10 8 10 11 0 2 -4 4 -10 4 -5 0 -10
-5 -10 -11z"/>
<path d="M7736 3269 c-27 -21 -61 -77 -53 -86 15 -15 117 70 117 98 0 16 -37
10 -64 -12z"/>
<path d="M7277 2351 c-48 -53 -81 -121 -112 -227 -29 -102 -29 -95 -10 -88 25
10 72 96 110 204 21 58 42 113 47 123 18 34 1 28 -35 -12z"/>
<path d="M7605 1960 c-21 -8 -51 -38 -44 -43 2 -2 16 -11 32 -20 19 -13 27
-26 27 -47 0 -35 23 -41 40 -11 11 22 14 90 4 115 -7 17 -27 20 -59 6z"/>
<path d="M7132 1831 c-34 -50 -62 -92 -62 -95 0 -17 35 -2 68 28 42 38 97 130
87 146 -14 23 -34 6 -93 -79z"/>
<path d="M7044 1873 c-35 -37 -66 -91 -62 -105 2 -6 20 11 40 38 61 85 74 123
22 67z"/>
<path d="M6635 2120 c-7 -11 7 -18 45 -22 17 -2 25 2 25 12 0 18 -60 27 -70
10z"/>
<path d="M5188 1761 c-147 -147 -198 -227 -123 -193 40 18 120 98 207 205 73
89 87 119 55 116 -7 -1 -69 -58 -139 -128z"/>
<path d="M4964 1860 c-27 -11 -72 -65 -80 -96 -8 -31 1 -54 20 -54 25 0 96 98
96 131 0 31 -3 33 -36 19z"/>
<path d="M5124 1841 c-47 -22 -87 -69 -108 -129 -12 -32 -12 -42 -3 -42 14 0
87 74 135 136 47 61 43 66 -24 35z"/>
<path d="M5367 1787 c-66 -62 -92 -97 -72 -97 37 0 147 95 159 137 13 42 -11
31 -87 -40z"/>
<path d="M4792 1268 c-67 -95 -117 -174 -112 -176 17 -6 87 37 122 76 19 21
47 63 61 93 24 52 60 170 53 176 -2 2 -58 -74 -124 -169z"/>
<path d="M4741 1384 c-15 -59 -58 -122 -115 -169 -47 -38 -103 -111 -93 -121
15 -15 66 12 112 59 45 47 155 235 155 266 0 6 -11 11 -24 11 -20 0 -26 -7
-35 -46z"/>
<path d="M5573 1338 c-31 -35 -50 -76 -73 -167 -28 -112 -24 -126 22 -80 23
23 42 54 52 90 17 53 33 179 24 179 -2 0 -14 -10 -25 -22z"/>
<path d="M5386 1227 c-41 -106 -41 -107 -21 -107 24 0 64 49 76 93 11 41 5
107 -10 107 -5 0 -25 -42 -45 -93z"/>
<path d="M4139 1274 c-13 -15 -67 -59 -119 -99 -103 -79 -172 -145 -151 -145
56 0 252 155 286 226 21 45 15 51 -16 18z"/>
<path d="M4985 1262 c-77 -103 -100 -152 -72 -152 35 0 100 103 95 150 l-3 28
-20 -26z"/>
<path d="M5249 1219 c-37 -55 -59 -93 -59 -103 0 -3 9 -6 19 -6 40 0 90 91 79
145 -2 12 -14 2 -39 -36z"/>
<path d="M3655 1234 c-16 -14 -51 -43 -77 -65 -54 -45 -61 -62 -20 -53 61 15
119 66 136 122 9 29 -2 28 -39 -4z"/>
<path d="M4404 1145 c-85 -68 -117 -105 -93 -105 20 0 75 28 107 55 31 26 89
112 81 120 -2 2 -45 -30 -95 -70z"/>
<path d="M4134 1090 c-64 -32 -104 -63 -238 -185 -48 -44 -83 -81 -77 -83 15
-5 101 42 166 92 78 58 233 205 219 206 -6 0 -37 -13 -70 -30z"/>
<path d="M5150 1050 c-11 -20 -14 -60 -5 -60 4 0 19 7 35 15 37 19 38 38 5 53
-21 10 -26 9 -35 -8z"/>
<path d="M4824 1021 c-36 -22 -84 -77 -84 -97 0 -20 54 -18 73 4 16 17 50 102
44 108 -2 2 -16 -5 -33 -15z"/>
<path d="M4977 1022 c-10 -10 -17 -24 -17 -30 0 -22 19 -12 35 18 17 33 7 40
-18 12z"/>
<path d="M4584 1001 c-17 -10 -55 -51 -84 -91 l-52 -73 37 6 c53 9 98 43 139
106 20 29 36 58 36 62 0 16 -44 10 -76 -10z"/>
<path d="M4405 981 c-43 -19 -95 -73 -95 -97 0 -9 5 -24 10 -34 9 -17 6 -20
-17 -25 -86 -17 -134 -38 -174 -76 l-44 -40 35 7 c19 3 68 21 109 40 60 28 92
52 168 128 52 52 92 100 88 105 -9 16 -34 13 -80 -8z"/>
<path d="M5411 950 c-35 -44 -40 -70 -13 -70 26 0 62 42 62 73 0 40 -14 40
-49 -3z"/>
<path d="M3127 1409 c-114 -106 -146 -151 -71 -98 59 42 184 162 184 178 0 22
-16 10 -113 -80z"/>
<path d="M2946 1389 c-51 -34 -123 -115 -112 -126 12 -12 94 37 119 71 30 38
50 76 44 82 -2 2 -25 -10 -51 -27z"/>
<path d="M7117 1348 c-37 -39 -56 -93 -39 -110 11 -11 85 117 79 136 -2 6 -20
-6 -40 -26z"/>
<path d="M7218 1320 c-8 -14 -32 -53 -52 -87 -39 -66 -59 -78 -111 -69 l-32 6
-71 -117 c-85 -143 -105 -183 -98 -191 12 -12 59 46 98 121 43 82 93 136 111
118 17 -17 -8 -81 -63 -165 -28 -42 -50 -79 -50 -81 0 -3 7 -5 15 -5 9 0 24
14 33 31 28 52 73 99 94 99 18 0 20 -5 15 -40 -4 -35 -3 -39 9 -29 43 36 268
429 246 429 -25 0 -64 -48 -113 -142 -55 -105 -114 -178 -142 -178 -28 0 -20
20 48 129 64 103 90 161 83 183 -3 8 -11 3 -20 -12z"/>
<path d="M7394 1236 c-44 -46 -70 -105 -60 -133 5 -13 14 -5 40 33 95 142 104
188 20 100z"/>
<path d="M7441 1081 c-13 -3 -28 -16 -32 -29 -7 -18 -5 -22 12 -22 25 0 71 23
88 44 12 14 10 16 -15 15 -16 -1 -40 -4 -53 -8z"/>
<path d="M7247 977 c-87 -135 -88 -167 -9 -167 54 0 126 68 147 137 5 20 2 22
-37 25 -34 2 -44 7 -46 23 -8 40 -21 36 -55 -18z"/>
<path d="M7417 900 c-24 -19 -67 -79 -67 -94 0 -3 11 -6 24 -6 27 0 66 43 85
93 13 34 -4 37 -42 7z"/>
<path d="M7505 818 c-25 -14 -65 -49 -65 -58 0 -4 11 -12 24 -18 27 -12 33 -8
60 45 24 47 20 53 -19 31z"/>
<path d="M7578 758 c-39 -14 -35 -28 7 -28 28 0 35 4 35 20 0 22 -3 23 -42 8z"/>
<path d="M6439 1116 c23 -24 81 -46 125 -46 45 0 28 17 -45 44 -91 34 -110 34
-80 2z"/>
<path d="M5672 6041 c-30 -10 -61 -26 -70 -36 -16 -17 -13 -17 52 -12 67 6
125 30 134 55 6 18 -53 15 -116 -7z"/>
<path d="M9233 6053 c-14 -5 -17 -50 -7 -78 5 -13 10 -7 20 22 21 59 19 69
-13 56z"/>
<path d="M5707 5901 c-60 -28 -67 -43 -12 -25 52 17 93 45 65 43 -8 0 -32 -9
-53 -18z"/>
<path d="M11338 5859 c-31 -17 -20 -29 27 -29 50 0 59 15 19 30 -30 12 -25 12
-46 -1z"/>
<path d="M5242 5806 c-284 -140 -526 -349 -752 -651 -111 -148 -260 -375 -246
-375 3 0 85 96 183 213 350 417 709 751 863 802 50 17 75 36 68 55 -2 6 -51
-13 -116 -44z"/>
<path d="M323 5672 c-29 -3 -33 -7 -33 -32 0 -28 1 -28 78 -35 231 -21 444
-102 592 -226 60 -51 73 -58 90 -49 27 15 26 21 -18 74 -118 143 -345 247
-576 264 -56 4 -116 6 -133 4z"/>
<path d="M6110 5516 c-7 -9 -17 -16 -22 -16 -17 0 -142 -86 -196 -135 -77 -69
-242 -278 -230 -290 2 -3 74 66 159 151 136 138 189 181 316 261 16 10 17 12
2 28 -14 14 -17 14 -29 1z"/>
<path d="M6183 5431 c-83 -46 -144 -94 -224 -178 -73 -77 -145 -170 -137 -178
2 -3 41 24 85 60 91 71 354 324 338 324 -5 1 -34 -12 -62 -28z"/>
<path d="M6354 5431 c-34 -41 -123 -129 -186 -183 -58 -50 -103 -118 -78 -118
4 0 40 35 80 78 86 93 141 132 187 132 39 0 57 -26 29 -42 -55 -31 -146 -140
-146 -175 0 -7 25 7 57 33 45 37 61 45 84 40 20 -4 33 1 53 20 37 37 42 63 17
80 -28 20 -26 42 4 54 14 5 25 13 25 18 0 19 -35 55 -66 68 -42 18 -41 18 -60
-5z"/>
<path d="M127 5395 c-40 -188 -61 -372 -62 -540 0 -143 3 -185 15 -205 15 -25
15 -25 18 20 1 25 11 131 22 235 25 248 33 408 22 470 -8 47 -9 48 -15 20z"/>
<path d="M570 5330 c-6 -12 -10 -26 -8 -31 2 -5 40 -25 85 -43 105 -43 233
-127 306 -202 60 -61 127 -178 111 -194 -5 -4 -89 19 -196 55 -103 34 -190 60
-192 58 -3 -3 -2 -12 1 -21 14 -41 61 -86 156 -152 112 -77 141 -101 175 -144
42 -55 34 -63 -78 -71 l-100 -7 0 -28 c0 -67 41 -122 126 -171 85 -48 88 -34
9 42 -57 55 -86 112 -67 131 8 8 29 7 71 -2 70 -15 121 -8 146 20 16 18 16 21
2 44 -18 27 -77 79 -182 158 -61 47 -99 97 -84 112 2 3 56 -13 119 -35 111
-37 192 -49 205 -29 15 25 -42 104 -146 201 -115 107 -159 163 -141 181 7 7
20 7 43 -1 17 -6 41 -11 53 -11 20 1 19 2 -7 25 -26 23 -76 41 -277 98 -47 13
-93 27 -102 31 -11 5 -20 1 -28 -14z"/>
<path d="M382 4763 c4 -63 13 -97 47 -177 23 -54 40 -105 37 -112 -3 -8 -20
-14 -40 -14 -41 0 -54 -23 -24 -44 18 -13 24 -13 55 2 33 16 36 16 49 -2 7
-10 25 -53 39 -95 27 -81 66 -153 72 -134 4 12 -57 234 -109 393 -37 113 -104
260 -120 260 -7 0 -9 -25 -6 -77z"/>
<path d="M245 4710 c23 -175 67 -315 149 -480 50 -101 177 -313 183 -306 2 1
-25 68 -60 147 -35 79 -81 189 -102 244 -21 55 -46 118 -56 140 -10 22 -36 91
-59 153 -49 139 -63 165 -55 102z"/>
<path d="M8570 4701 c0 -5 -18 -31 -40 -56 -37 -43 -51 -75 -32 -75 18 0 104
99 100 115 -3 20 -28 33 -28 16z"/>
<path d="M6350 4615 c0 -2 30 -41 66 -87 75 -92 103 -147 104 -197 0 -33 0
-34 -38 -29 -74 10 -204 75 -329 164 -44 32 -23 -6 44 -77 137 -145 307 -227
520 -252 40 -5 45 -3 73 33 47 59 149 270 131 270 -16 0 -51 -48 -85 -120 -43
-87 -71 -120 -103 -120 -42 0 -37 27 16 106 28 42 51 87 51 101 0 26 0 26 -21
7 -12 -10 -39 -46 -60 -80 -43 -67 -75 -89 -113 -74 -37 14 -39 27 -9 52 59
49 83 77 83 97 0 31 -31 26 -62 -9 -41 -46 -55 -40 -60 28 -3 44 -11 68 -33
98 -41 57 -96 94 -139 94 -20 0 -36 -2 -36 -5z"/>
<path d="M5918 4493 c11 -16 39 -46 62 -68 160 -153 191 -252 39 -125 -65 55
-112 80 -125 68 -8 -8 74 -95 139 -146 125 -100 259 -156 359 -150 l52 3 -64
42 c-36 23 -90 53 -121 67 -53 23 -61 32 -129 136 -83 127 -157 200 -202 200
l-29 0 19 -27z"/>
<path d="M7190 4462 c0 -38 -72 -161 -149 -257 -45 -54 -81 -103 -81 -108 0
-16 51 3 97 35 25 17 62 57 83 89 34 53 110 225 110 249 0 6 -13 10 -30 10
-22 0 -30 -5 -30 -18z"/>
<path d="M36 4448 c-4 -13 -10 -78 -13 -145 l-6 -123 31 0 c17 0 38 -3 48 -7
14 -5 16 -3 9 13 -5 10 -11 71 -15 136 -4 73 -11 122 -19 132 -18 22 -27 20
-35 -6z"/>
<path d="M7773 4418 c-39 -41 -130 -204 -119 -215 2 -3 25 14 51 38 31 28 59
70 86 124 21 45 39 85 39 88 0 16 -18 4 -57 -35z"/>
<path d="M6978 4323 c-47 -71 -100 -147 -118 -170 -38 -51 -22 -57 37 -14 70
51 156 188 169 270 4 23 4 41 2 41 -3 0 -43 -57 -90 -127z"/>
<path d="M7618 4383 c-58 -62 -138 -176 -138 -199 0 -23 53 3 99 48 47 47 104
155 99 188 -3 20 -9 16 -60 -37z"/>
<path d="M7263 4317 c-67 -99 -91 -163 -57 -151 36 13 53 37 99 131 41 86 47
113 27 113 -4 0 -35 -42 -69 -93z"/>
<path d="M7440 4364 c-48 -45 -131 -186 -117 -200 10 -10 65 25 95 61 31 38
89 171 79 181 -3 3 -29 -15 -57 -42z"/>
<path d="M684 4330 c9 -52 73 -171 169 -316 105 -159 160 -261 182 -339 30
-105 31 -105 45 13 14 126 9 211 -15 248 -23 35 -33 30 -37 -18 -2 -35 -7 -44
-24 -46 -46 -7 -116 104 -209 331 -17 41 -45 87 -72 115 l-44 47 5 -35z"/>
<path d="M8708 4226 c-78 -39 -157 -98 -139 -104 19 -6 151 62 196 102 51 45
30 46 -57 2z"/>
<path d="M8877 4205 c-38 -14 -120 -66 -172 -109 l-30 -25 33 -1 c42 0 102 30
174 89 78 62 76 75 -5 46z"/>
<path d="M8891 4099 c-58 -29 -102 -72 -87 -86 20 -20 141 51 166 98 15 28 -5
25 -79 -12z"/>
<path d="M9043 4055 c-73 -22 -166 -85 -151 -101 3 -3 22 -8 42 -11 28 -4 36
-2 36 9 0 21 37 52 98 82 28 15 52 29 52 31 0 8 -33 4 -77 -10z"/>
<path d="M9160 4018 c-41 -23 -99 -52 -129 -64 l-54 -22 44 -12 c159 -44 300
-59 389 -44 33 6 90 58 77 70 -3 3 -37 -6 -77 -20 -120 -44 -191 -26 -100 25
37 21 60 49 40 49 -5 0 -39 -16 -76 -35 -78 -42 -117 -46 -112 -13 2 12 19 32
38 45 19 12 46 31 60 42 l25 20 -25 1 c-14 0 -59 -19 -100 -42z"/>
<path d="M23 3992 c3 -20 15 -127 26 -238 20 -190 48 -325 71 -339 17 -10 9
234 -16 510 l-6 70 -40 17 -40 17 5 -37z"/>
<path d="M725 3923 c8 -34 23 -53 41 -53 19 0 18 30 -2 58 -23 33 -48 29 -39
-5z"/>
<path d="M5547 3923 c-3 -5 -10 -35 -17 -68 -20 -107 -50 -187 -142 -378 -49
-103 -88 -193 -86 -199 5 -15 87 101 126 177 47 95 152 413 152 462 0 14 -26
18 -33 6z"/>
<path d="M9583 3891 c-64 -8 -75 -17 -31 -25 39 -7 90 5 96 22 2 7 0 11 -5 11
-4 -1 -31 -5 -60 -8z"/>
<path d="M5637 3793 c-14 -32 -54 -130 -90 -218 -36 -88 -77 -186 -91 -217
-14 -32 -22 -58 -17 -58 15 0 88 102 124 175 41 82 93 247 103 323 4 28 4 52
2 52 -3 0 -17 -26 -31 -57z"/>
<path d="M5272 3520 c-67 -145 -120 -265 -117 -268 17 -17 111 123 159 240 40
97 90 262 84 279 -2 6 -59 -107 -126 -251z"/>
<path d="M5100 3454 c-58 -118 -106 -219 -108 -224 -8 -22 20 -8 56 29 47 48
95 136 128 233 22 65 43 179 33 177 -2 0 -51 -97 -109 -215z"/>
<path d="M4773 3418 c-105 -203 -229 -412 -396 -666 -66 -100 -117 -185 -114
-188 11 -12 174 165 232 251 33 49 137 244 231 432 132 266 166 343 153 343
-12 0 -43 -50 -106 -172z"/>
<path d="M3309 3463 c-75 -89 -124 -161 -117 -169 8 -7 136 135 165 183 43 74
20 67 -48 -14z"/>
<path d="M4626 3404 c-22 -47 -71 -140 -109 -207 -39 -67 -92 -167 -118 -222
-38 -78 -74 -131 -165 -240 -111 -135 -172 -221 -162 -231 9 -9 114 85 164
148 92 113 154 218 279 474 68 137 137 274 154 302 36 62 36 62 13 62 -13 0
-29 -24 -56 -86z"/>
<path d="M4400 3283 c-196 -343 -300 -500 -523 -789 -50 -64 88 10 169 91 71
71 184 237 245 357 21 42 73 154 115 250 42 95 88 194 102 221 17 33 22 51 15
58 -7 7 -45 -52 -123 -188z"/>
<path d="M4184 3177 c-109 -184 -158 -276 -151 -283 7 -7 112 135 166 225 55
90 94 184 89 212 -2 10 -45 -53 -104 -154z"/>
<path d="M3907 3250 c-25 -28 -69 -96 -98 -153 -100 -196 -202 -330 -406 -533
-62 -62 -113 -119 -113 -129 0 -20 6 -16 86 46 95 75 223 215 300 330 59 85
235 377 283 467 20 38 -5 24 -52 -28z"/>
<path d="M4063 3197 c-90 -128 -187 -286 -181 -293 11 -10 135 137 180 212 48
81 93 184 80 184 -4 0 -39 -46 -79 -103z"/>
<path d="M3435 3217 c-15 -21 -26 -40 -23 -42 8 -8 60 53 56 66 -2 7 -16 -2
-33 -24z"/>
<path d="M150 3030 c0 -197 32 -390 85 -509 24 -53 25 -59 11 -86 -20 -37 -21
-134 -3 -178 15 -34 44 -64 53 -54 14 13 -9 129 -31 162 -23 33 -23 34 -4 40
24 8 25 48 3 194 -18 125 -92 479 -105 501 -5 9 -9 -17 -9 -70z"/>
<path d="M3719 2733 c-65 -60 -272 -303 -264 -311 2 -2 25 6 50 18 89 43 215
180 274 297 37 73 23 72 -60 -4z"/>
<path d="M3895 2738 c-17 -29 -88 -109 -160 -180 -113 -111 -127 -128 -104
-128 46 0 145 58 198 116 47 51 131 199 131 230 0 32 -37 11 -65 -38z"/>
<path d="M1640 2747 c0 -2 9 -43 19 -92 11 -50 34 -187 51 -305 40 -280 73
-439 110 -543 30 -82 86 -184 96 -174 3 2 -4 27 -15 54 -60 152 -117 401 -182
788 -23 138 -46 256 -51 263 -9 11 -28 17 -28 9z"/>
<path d="M274 2013 c2 -16 8 -59 11 -98 9 -101 26 -185 38 -185 6 0 7 20 4 53
-3 28 -9 98 -13 155 -6 92 -9 102 -26 102 -16 0 -19 -5 -14 -27z"/>
<path d="M2006 1348 c105 -274 209 -462 309 -558 41 -39 46 -42 40 -20 -14 45
-37 84 -105 175 -69 92 -121 189 -225 418 -32 70 -61 127 -66 127 -4 0 17 -64
47 -142z"/>
<path d="M1844 1433 c3 -10 8 -31 11 -48 11 -51 26 -83 42 -90 9 -3 18 -4 20
-1 6 5 -64 156 -72 156 -4 0 -4 -8 -1 -17z"/>
<path d="M1775 1353 c3 -16 15 -37 26 -48 19 -19 19 -19 19 6 0 27 -25 69 -42
69 -6 0 -8 -11 -3 -27z"/>
<path d="M567 1267 c6 -32 46 -81 61 -76 9 3 3 20 -17 52 -33 51 -51 61 -44
24z"/>
<path d="M860 1093 c0 -13 104 -113 118 -113 15 0 15 5 -2 38 -14 27 -116 92
-116 75z"/>
<path d="M730 1057 c0 -21 98 -157 153 -211 68 -68 86 -63 38 12 -30 47 -191
214 -191 199z"/>
<path d="M1091 479 c57 -101 212 -236 294 -255 l30 -7 -45 48 c-51 54 -255
232 -284 247 -16 9 -16 5 5 -33z"/>
<path d="M1043 373 c3 -16 -3 -52 -14 -83 -23 -65 -23 -71 -5 -95 13 -18 15
-18 40 -2 14 10 26 26 26 37 0 31 20 34 50 5 28 -27 110 -48 110 -28 0 20
-133 154 -173 174 l-40 21 6 -29z"/>
</g>
</svg>
